<svg version="1.1" id="Layer_1" xmlns="http://www.w3.org/2000/svg" xmlns:xlink="http://www.w3.org/1999/xlink" x="0px"
	y="0px" width="100%" viewBox="0 0 1200 413" enable-background="new 0 0 1200 413" xml:space="preserve">
	<path fill="rgba(0,0,0,0)" opacity="1.000000" stroke="none" d="
M903.000000,414.000000 
	C602.000061,414.000000 301.500122,414.000000 1.000121,414.000000 
	C1.000081,276.333405 1.000081,138.666824 1.000040,1.000176 
	C400.999847,1.000118 800.999695,1.000118 1200.999634,1.000059 
	C1200.999756,138.666489 1200.999756,276.332977 1200.999878,413.999756 
	C1101.833374,414.000000 1002.666687,414.000000 903.000000,414.000000 
M382.108978,122.115639 
	C382.108978,122.115639 382.330353,122.350235 382.348145,123.150162 
	C377.544800,139.405930 373.731934,156.038300 367.725128,171.836487 
	C356.382233,201.668594 340.446472,228.940475 317.230774,251.328613 
	C311.042206,257.296600 304.003510,262.383148 297.315918,267.906769 
	C301.113586,274.544525 309.095215,278.108917 318.743408,276.641693 
	C337.795288,273.744415 353.391022,263.544128 366.996735,250.920166 
	C400.165039,220.145187 414.272675,180.888443 415.027313,136.350876 
	C415.217163,125.146935 408.996094,117.569740 399.118408,113.075012 
	C385.195374,106.739487 372.520752,110.214607 360.593323,118.589333 
	C342.794891,131.086288 328.630768,147.193542 315.227600,164.067749 
	C314.300201,165.235321 313.327850,166.367188 312.376404,167.515671 
	C311.970490,167.232849 311.564575,166.950027 311.158661,166.667221 
	C321.352905,138.876465 333.796539,112.263557 353.332062,88.521538 
	C350.157104,86.379730 347.416656,83.716698 344.138245,82.480545 
	C336.076996,79.440994 327.747406,77.120033 319.568634,74.381996 
	C316.022827,73.194962 313.503326,74.249367 311.413147,77.171371 
	C302.578552,89.521973 294.317413,102.183495 289.064240,116.571861 
	C279.815552,141.904037 270.891388,167.363190 261.148254,192.504456 
	C244.602707,235.198669 227.110275,277.541840 216.387192,322.238312 
	C211.935425,340.794403 208.557510,359.447723 211.993958,378.581055 
	C212.894608,383.595673 213.459702,389.232697 216.178650,393.220398 
	C219.818237,398.558380 225.381210,402.594055 230.184738,407.118378 
	C230.830246,407.726318 231.862991,407.923126 233.246368,408.550812 
	C235.546890,399.709259 237.798645,391.256500 239.943954,382.776825 
	C251.954285,335.303955 264.702393,288.048065 282.253876,242.251694 
	C288.156128,226.851074 294.437622,211.581131 304.823730,198.463150 
	C316.818634,183.313263 328.555420,167.948639 340.899902,153.088989 
	C352.099457,139.607544 366.108765,129.506378 382.108978,122.115639 
M651.827820,61.386368 
	C654.625610,65.092926 657.372498,68.839340 660.237915,72.492851 
	C662.338623,75.171425 664.379089,75.032692 667.476624,73.249954 
	C679.685547,66.223373 692.073059,59.489361 704.587952,53.021641 
	C708.850220,50.818905 713.682861,49.719963 718.254883,48.116665 
	C718.745483,48.564243 719.236084,49.011822 719.726624,49.459404 
	C714.557373,64.999313 710.369629,80.951630 704.044678,96.006012 
	C679.775452,153.770248 654.803650,211.239212 630.216064,268.870422 
	C629.579041,270.363495 629.665771,272.962524 630.573914,274.184113 
	C635.321960,280.570740 640.064758,287.041229 645.541931,292.783875 
	C651.258972,298.778015 658.815552,301.900543 667.595642,303.935455 
	C678.194397,256.011139 694.524536,210.519791 715.522339,165.922760 
	C717.288269,167.268646 718.661377,168.119400 719.798584,169.214966 
	C725.343384,174.556473 731.820862,177.249817 739.620483,177.076080 
	C754.979736,176.733948 770.195862,175.493484 784.942993,170.836502 
	C814.782227,161.413635 839.898621,145.426483 856.058044,117.848778 
	C868.451782,96.697578 872.301636,74.065338 862.792480,50.828030 
	C851.193848,22.484528 826.944702,11.063564 798.807373,6.181725 
	C782.657410,3.379687 766.275391,3.473642 750.050720,6.096079 
	C733.807678,8.721476 717.505981,11.198297 701.460205,14.773626 
	C682.247192,19.054699 664.146545,26.649942 646.343994,35.537266 
	C638.163330,31.988613 629.980835,28.444212 621.802856,24.889286 
	C618.383240,23.402763 616.966919,25.150167 616.126465,28.205633 
	C613.661072,37.168369 610.679688,46.014099 608.711060,55.081646 
	C606.682251,64.426292 604.098816,74.008743 609.769653,83.234039 
	C610.440613,84.325493 610.019714,86.148880 609.948120,87.625389 
	C609.652344,93.723877 611.447754,97.000504 617.149780,99.209915 
	C618.460693,99.717850 621.126587,99.106209 621.981934,98.049248 
	C631.915771,85.773582 641.621643,73.313522 651.827820,61.386368 
M81.599297,29.102507 
	C59.249928,50.328716 43.653488,76.183434 31.094124,103.949326 
	C19.816708,128.881104 11.660508,154.861298 7.311169,181.958679 
	C3.648274,204.779358 2.406026,227.595352 6.794364,250.487518 
	C9.292253,263.517975 14.606951,275.307861 23.150845,285.312073 
	C36.850082,301.352814 55.350121,305.677826 75.451065,304.843964 
	C106.137932,303.570984 133.111465,292.016357 157.066498,273.482208 
	C193.156555,245.559113 218.199524,209.357956 234.085068,166.807343 
	C243.179443,142.447403 247.577637,117.106331 247.839294,91.064041 
	C247.996628,75.403770 245.567200,60.444916 235.587189,47.769684 
	C231.212479,42.213516 225.471863,38.191845 218.119965,35.698204 
	C218.899139,44.124813 220.019836,51.709038 220.233749,59.318752 
	C221.345459,98.863594 215.045364,137.196457 201.091797,174.271393 
	C187.471359,210.461182 168.056824,242.460220 136.281815,265.794525 
	C121.696922,276.505096 106.024841,284.530090 87.704575,286.119720 
	C73.379433,287.362701 62.472294,281.702454 55.345982,269.101471 
	C49.855949,259.393768 48.499016,248.606705 48.048626,237.801514 
	C47.197544,217.383423 49.776501,197.277451 55.009533,177.521515 
	C63.006092,147.332626 75.455635,119.250114 93.964973,93.923607 
	C107.708626,75.118027 124.072472,59.374668 144.570221,48.035625 
	C156.673935,41.340038 169.374619,37.675064 183.286407,38.948822 
	C189.503082,39.518009 195.714722,40.142342 203.368332,40.880497 
	C201.279343,37.819511 200.252945,35.218956 198.355820,33.721504 
	C189.103333,26.418238 179.962097,18.887327 170.135437,12.418320 
	C155.118454,2.532449 138.382782,0.855878 121.241257,5.408522 
	C106.124901,9.423296 93.482368,18.049971 81.599297,29.102507 
M1183.450195,55.017044 
	C1180.125122,53.960110 1176.732178,53.077267 1173.487793,51.813263 
	C1164.160645,48.179394 1156.707886,50.186089 1151.220825,58.756618 
	C1140.467896,75.551865 1129.576538,92.260460 1119.031250,109.184937 
	C1117.045288,112.372246 1115.272949,113.976517 1111.316040,113.843170 
	C1101.732178,113.520187 1092.130005,113.738243 1081.585327,113.738243 
	C1082.615112,118.752747 1083.703369,124.209549 1084.865234,129.650635 
	C1085.552979,132.871384 1087.411743,134.300537 1090.908569,134.123581 
	C1096.163574,133.857635 1101.442139,134.054352 1107.453857,134.054352 
	C1104.941895,140.616745 1102.593262,146.426498 1100.482666,152.321472 
	C1090.381958,180.535538 1080.675293,208.873810 1076.496338,238.721649 
	C1075.176025,248.152008 1074.000977,257.700378 1080.368530,266.100189 
	C1088.583862,276.937469 1099.306641,284.411194 1112.272339,288.090546 
	C1118.161255,289.761627 1125.198364,291.485748 1130.650391,289.781464 
	C1143.787964,285.674652 1154.726807,277.206177 1164.662842,267.640137 
	C1167.517822,264.891541 1167.775635,262.343475 1164.209473,259.587891 
	C1154.779175,267.029785 1143.758057,271.068756 1132.145142,273.671753 
	C1121.748901,276.002045 1115.268555,271.763275 1114.891357,261.015137 
	C1114.567261,251.780701 1115.168091,242.332550 1116.815063,233.242554 
	C1122.971924,199.261673 1135.287354,167.357101 1150.609375,136.516541 
	C1152.436890,132.838181 1154.637207,131.901718 1158.587769,131.452316 
	C1170.099365,130.142822 1181.529785,128.082474 1192.955444,126.104568 
	C1194.272583,125.876549 1196.174561,124.479782 1196.408203,123.338806 
	C1197.332397,118.825302 1193.375977,114.779556 1188.625122,114.977524 
	C1185.462524,115.109306 1182.305908,115.448967 1179.143188,115.505905 
	C1174.088867,115.596893 1169.031616,115.530258 1163.975586,115.530258 
	C1163.618774,115.044151 1163.261963,114.558052 1162.905273,114.071945 
	C1174.493286,96.949310 1186.081299,79.826675 1198.320923,61.741249 
	C1193.656982,59.588867 1188.929077,57.406956 1183.450195,55.017044 
M512.862305,263.394562 
	C503.916565,266.850006 495.150238,270.920746 485.976776,273.595062 
	C475.969238,276.512604 469.167419,271.317657 468.991699,260.736176 
	C468.843414,251.806915 469.253204,242.708572 470.828430,233.938751 
	C476.963043,199.784042 489.267395,167.709488 504.663696,136.716843 
	C506.591644,132.835892 508.898773,131.910034 513.015076,131.441986 
	C524.523071,130.133484 535.947571,128.037888 547.356445,125.983261 
	C548.631836,125.753571 550.502319,123.824883 550.545288,122.628342 
	C550.723389,117.672668 547.456360,114.771187 542.555237,114.984940 
	C539.393616,115.122818 536.238525,115.473633 533.076843,115.533119 
	C528.055664,115.627579 523.031433,115.558319 518.008484,115.558319 
	C517.709534,115.035378 517.410522,114.512428 517.111572,113.989487 
	C528.702881,96.857399 540.294189,79.725311 552.090088,62.290894 
	C550.696960,61.284187 549.382629,59.846310 547.758423,59.243637 
	C539.982178,56.358189 532.120850,53.701904 524.291809,50.958447 
	C516.991577,48.400299 511.763153,51.009758 507.000092,56.818733 
	C493.628662,73.126221 482.763672,91.006935 472.922302,109.557701 
	C471.340210,112.539917 469.616119,113.948845 466.004486,113.841324 
	C456.247742,113.550858 446.476715,113.741882 435.498016,113.741882 
	C436.921234,119.576096 438.244843,125.805435 440.103271,131.870895 
	C440.433136,132.947449 442.962860,133.881622 444.519958,133.954239 
	C449.937622,134.206909 455.374268,134.051895 461.591248,134.051895 
	C460.522217,136.919830 459.743866,139.056976 458.931122,141.180984 
	C446.729980,173.067032 435.505219,205.249298 430.579529,239.221298 
	C429.265533,248.283752 428.243591,257.494202 434.250122,265.677216 
	C442.322296,276.674316 453.059052,284.115967 465.935760,287.959839 
	C471.945709,289.753876 479.184387,291.497986 484.788452,289.769867 
	C497.934448,285.716125 508.873566,277.222595 518.794556,267.638702 
	C521.637390,264.892456 521.968445,262.342499 518.383484,259.646179 
	C516.753784,260.744965 515.108643,261.854156 512.862305,263.394562 
M1034.317871,154.755463 
	C1029.352905,160.486023 1024.387939,166.216583 1019.430420,171.938583 
	C1028.169434,183.805878 1039.934937,184.756821 1049.650635,173.950684 
	C1060.380371,162.016769 1064.360718,147.670914 1062.724365,131.861740 
	C1060.941772,114.640228 1050.510864,103.712135 1033.592651,101.297325 
	C1019.616150,99.302399 1006.028259,101.221283 993.024170,106.738579 
	C971.024963,116.072296 953.868896,131.270782 941.020752,151.186111 
	C925.558105,175.154251 918.021545,201.147797 924.921875,229.614655 
	C930.655273,253.267242 943.527039,271.809784 966.705017,281.705414 
	C974.985229,285.240631 983.094360,285.733246 991.696838,281.511230 
	C1010.515991,272.274933 1026.816528,259.936157 1040.681030,244.296066 
	C1044.274292,240.242630 1044.081543,238.664978 1039.505371,234.049683 
	C1037.552734,235.383652 1035.528320,236.780746 1033.489868,238.157028 
	C1019.102295,247.871399 1004.037659,256.194031 987.726196,262.394684 
	C972.150696,268.315552 969.355957,261.297363 965.326782,249.543091 
	C964.684937,247.670685 964.359497,245.651306 964.157471,243.672348 
	C959.641113,199.424698 974.954407,162.988007 1007.952515,133.752884 
	C1015.191956,127.339043 1023.328674,121.943871 1033.382080,120.852707 
	C1039.782104,120.158058 1042.597900,122.726585 1043.140991,129.142319 
	C1043.950073,138.700729 1039.854736,146.606171 1034.317871,154.755463 
M860.902405,277.726532 
	C862.284119,278.297119 863.651978,278.904236 865.049866,279.432007 
	C871.493713,281.864899 871.739563,281.440704 872.252625,274.398224 
	C872.745361,267.633209 873.090454,260.648956 875.062500,254.241882 
	C879.702271,239.167267 885.141235,224.331543 890.500122,209.487015 
	C898.374268,187.674957 907.095337,166.264450 922.631531,148.486923 
	C924.944580,145.840225 923.453979,143.905167 921.918762,141.922165 
	C915.962463,134.228500 908.176453,129.015335 899.347290,125.112885 
	C890.398193,121.157394 887.604797,121.648010 880.736755,128.928757 
	C869.237610,141.119095 862.199951,155.905869 858.220215,171.783066 
	C852.768372,193.533325 848.544983,215.604233 844.235962,237.623993 
	C841.007263,254.122894 845.337524,267.974487 860.902405,277.726532 
M594.652222,189.242157 
	C600.714294,175.126801 607.636475,161.481720 617.865295,149.867081 
	C620.750244,146.591278 620.199341,144.263077 617.796387,141.270386 
	C610.207275,131.818710 599.956055,126.480301 588.888672,122.487549 
	C587.536987,121.999901 585.351929,122.843697 583.926086,123.695137 
	C572.618347,130.447586 566.947083,141.635178 561.477295,152.889328 
	C553.612000,169.072479 550.204285,186.581955 546.921875,204.062943 
	C544.224915,218.426315 541.385071,232.832535 539.998718,247.352493 
	C538.643127,261.550751 548.021729,274.442291 561.354614,279.457916 
	C567.637573,281.821503 567.810669,281.310883 568.669006,274.388336 
	C569.848694,264.873627 570.728821,255.099213 573.684021,246.073456 
	C579.884583,227.136002 587.355164,208.614395 594.652222,189.242157 
M913.111389,51.532894 
	C912.328979,55.613132 911.498840,59.684921 910.775208,63.775555 
	C909.620300,70.304520 909.649597,76.651176 913.166870,82.662102 
	C913.914062,83.938896 913.815552,85.862534 913.707092,87.461052 
	C913.290710,93.601906 915.384521,97.386826 921.133667,99.402588 
	C922.383362,99.840759 924.809387,99.215302 925.641602,98.209389 
	C938.358276,82.838852 950.862732,67.292938 963.528320,51.879650 
	C965.182434,49.866596 965.037720,48.521191 963.337463,46.801464 
	C952.703918,36.046471 940.442078,28.190062 925.488403,24.808161 
	C922.396912,24.109007 920.845642,24.639610 919.979919,27.748976 
	C917.841614,35.429111 915.525879,43.059811 913.111389,51.532894 
z" />
	<path fill="#f4651a" opacity="1.000000" stroke="none" d="
M81.861984,28.864178 
	C93.482368,18.049971 106.124901,9.423296 121.241257,5.408522 
	C138.382782,0.855878 155.118454,2.532449 170.135437,12.418320 
	C179.962097,18.887327 189.103333,26.418238 198.355820,33.721504 
	C200.252945,35.218956 201.279343,37.819511 203.368332,40.880497 
	C195.714722,40.142342 189.503082,39.518009 183.286407,38.948822 
	C169.374619,37.675064 156.673935,41.340038 144.570221,48.035625 
	C124.072472,59.374668 107.708626,75.118027 93.964973,93.923607 
	C75.455635,119.250114 63.006092,147.332626 55.009533,177.521515 
	C49.776501,197.277451 47.197544,217.383423 48.048626,237.801514 
	C48.499016,248.606705 49.855949,259.393768 55.345982,269.101471 
	C62.472294,281.702454 73.379433,287.362701 87.704575,286.119720 
	C106.024841,284.530090 121.696922,276.505096 136.281815,265.794525 
	C168.056824,242.460220 187.471359,210.461182 201.091797,174.271393 
	C215.045364,137.196457 221.345459,98.863594 220.233749,59.318752 
	C220.019836,51.709038 218.899139,44.124813 218.119965,35.698204 
	C225.471863,38.191845 231.212479,42.213516 235.587189,47.769684 
	C245.567200,60.444916 247.996628,75.403770 247.839294,91.064041 
	C247.577637,117.106331 243.179443,142.447403 234.085068,166.807343 
	C218.199524,209.357956 193.156555,245.559113 157.066498,273.482208 
	C133.111465,292.016357 106.137932,303.570984 75.451065,304.843964 
	C55.350121,305.677826 36.850082,301.352814 23.150845,285.312073 
	C14.606951,275.307861 9.292253,263.517975 6.794364,250.487518 
	C2.406026,227.595352 3.648274,204.779358 7.311169,181.958679 
	C11.660508,154.861298 19.816708,128.881104 31.094124,103.949326 
	C43.653488,76.183434 59.249928,50.328716 81.861984,28.864178 
z" />
	<path fill="#3a71bf" opacity="1.000000" stroke="none" d="
M646.811890,35.998581 
	C664.146545,26.649942 682.247192,19.054699 701.460205,14.773626 
	C717.505981,11.198297 733.807678,8.721476 750.050720,6.096079 
	C766.275391,3.473642 782.657410,3.379687 798.807373,6.181725 
	C826.944702,11.063564 851.193848,22.484528 862.792480,50.828030 
	C872.301636,74.065338 868.451782,96.697578 856.058044,117.848778 
	C839.898621,145.426483 814.782227,161.413635 784.942993,170.836502 
	C770.195862,175.493484 754.979736,176.733948 739.620483,177.076080 
	C731.820862,177.249817 725.343384,174.556473 719.798584,169.214966 
	C718.661377,168.119400 717.288269,167.268646 715.522339,165.922760 
	C694.524536,210.519791 678.194397,256.011139 667.595642,303.935455 
	C658.815552,301.900543 651.258972,298.778015 645.541931,292.783875 
	C640.064758,287.041229 635.321960,280.570740 630.573914,274.184113 
	C629.665771,272.962524 629.579041,270.363495 630.216064,268.870422 
	C654.803650,211.239212 679.775452,153.770248 704.044678,96.006012 
	C710.369629,80.951630 714.557373,64.999313 719.726624,49.459404 
	C719.236084,49.011822 718.745483,48.564243 718.254883,48.116665 
	C713.682861,49.719963 708.850220,50.818905 704.587952,53.021641 
	C692.073059,59.489361 679.685547,66.223373 667.476624,73.249954 
	C664.379089,75.032692 662.338623,75.171425 660.237915,72.492851 
	C657.372498,68.839340 654.625610,65.092926 651.503052,60.793049 
	C648.870605,55.058125 646.383606,49.987129 644.320007,44.749317 
	C643.013733,41.433594 642.520142,37.921989 646.811890,35.998581 
M835.146179,40.253395 
	C815.833557,29.944204 795.636902,32.132469 774.709900,35.514927 
	C779.286987,40.276257 776.947083,43.781254 774.233765,47.524616 
	C771.898621,50.746269 769.818726,54.209789 768.051514,57.777180 
	C754.617065,84.896790 741.280945,112.065186 727.947388,139.234680 
	C727.411133,140.327347 727.207336,141.583160 726.824768,142.841629 
	C727.803589,143.091690 728.278503,143.316315 728.755127,143.319946 
	C751.237549,143.491516 773.232422,140.124512 794.696838,133.598511 
	C813.534241,127.871201 829.880127,118.110725 842.952393,103.023941 
	C859.023193,84.476608 856.201050,52.919407 835.146179,40.253395 
z" />
	<path fill="#f4651a" opacity="1.000000" stroke="none" d="
M381.887238,121.881393 
	C366.108765,129.506378 352.099457,139.607544 340.899902,153.088989 
	C328.555420,167.948639 316.818634,183.313263 304.823730,198.463150 
	C294.437622,211.581131 288.156128,226.851074 282.253876,242.251694 
	C264.702393,288.048065 251.954285,335.303955 239.943954,382.776825 
	C237.798645,391.256500 235.546890,399.709259 233.246368,408.550812 
	C231.862991,407.923126 230.830246,407.726318 230.184738,407.118378 
	C225.381210,402.594055 219.818237,398.558380 216.178650,393.220398 
	C213.459702,389.232697 212.894608,383.595673 211.993958,378.581055 
	C208.557510,359.447723 211.935425,340.794403 216.387192,322.238312 
	C227.110275,277.541840 244.602707,235.198669 261.148254,192.504456 
	C270.891388,167.363190 279.815552,141.904037 289.064240,116.571861 
	C294.317413,102.183495 302.578552,89.521973 311.413147,77.171371 
	C313.503326,74.249367 316.022827,73.194962 319.568634,74.381996 
	C327.747406,77.120033 336.076996,79.440994 344.138245,82.480545 
	C347.416656,83.716698 350.157104,86.379730 353.332062,88.521538 
	C333.796539,112.263557 321.352905,138.876465 311.158661,166.667221 
	C311.564575,166.950027 311.970490,167.232849 312.376404,167.515671 
	C313.327850,166.367188 314.300201,165.235321 315.227600,164.067749 
	C328.630768,147.193542 342.794891,131.086288 360.593323,118.589333 
	C372.520752,110.214607 385.195374,106.739487 399.118408,113.075012 
	C408.996094,117.569740 415.217163,125.146935 415.027313,136.350876 
	C414.272675,180.888443 400.165039,220.145187 366.996735,250.920166 
	C353.391022,263.544128 337.795288,273.744415 318.743408,276.641693 
	C309.095215,278.108917 301.113586,274.544525 297.315918,267.906769 
	C304.003510,262.383148 311.042206,257.296600 317.230774,251.328613 
	C340.446472,228.940475 356.382233,201.668594 367.725128,171.836487 
	C373.731934,156.038300 377.544800,139.405930 382.512329,122.601578 
	C382.599213,121.792816 382.521912,121.532654 382.444611,121.272476 
	C382.258820,121.475441 382.073029,121.678413 381.887238,121.881393 
M311.992645,168.162750 
	C311.560333,168.113602 311.128021,168.064453 310.695709,168.015305 
	C310.997894,168.274033 311.300049,168.532776 311.992645,168.162750 
z" />
	<path fill="#3a71bf" opacity="1.000000" stroke="none" d="
M1183.825684,55.121044 
	C1188.929077,57.406956 1193.656982,59.588867 1198.320923,61.741249 
	C1186.081299,79.826675 1174.493286,96.949310 1162.905273,114.071945 
	C1163.261963,114.558052 1163.618774,115.044151 1163.975586,115.530258 
	C1169.031616,115.530258 1174.088867,115.596893 1179.143188,115.505905 
	C1182.305908,115.448967 1185.462524,115.109306 1188.625122,114.977524 
	C1193.375977,114.779556 1197.332397,118.825302 1196.408203,123.338806 
	C1196.174561,124.479782 1194.272583,125.876549 1192.955444,126.104568 
	C1181.529785,128.082474 1170.099365,130.142822 1158.587769,131.452316 
	C1154.637207,131.901718 1152.436890,132.838181 1150.609375,136.516541 
	C1135.287354,167.357101 1122.971924,199.261673 1116.815063,233.242554 
	C1115.168091,242.332550 1114.567261,251.780701 1114.891357,261.015137 
	C1115.268555,271.763275 1121.748901,276.002045 1132.145142,273.671753 
	C1143.758057,271.068756 1154.779175,267.029785 1164.209473,259.587891 
	C1167.775635,262.343475 1167.517822,264.891541 1164.662842,267.640137 
	C1154.726807,277.206177 1143.787964,285.674652 1130.650391,289.781464 
	C1125.198364,291.485748 1118.161255,289.761627 1112.272339,288.090546 
	C1099.306641,284.411194 1088.583862,276.937469 1080.368530,266.100189 
	C1074.000977,257.700378 1075.176025,248.152008 1076.496338,238.721649 
	C1080.675293,208.873810 1090.381958,180.535538 1100.482666,152.321472 
	C1102.593262,146.426498 1104.941895,140.616745 1107.453857,134.054352 
	C1101.442139,134.054352 1096.163574,133.857635 1090.908569,134.123581 
	C1087.411743,134.300537 1085.552979,132.871384 1084.865234,129.650635 
	C1083.703369,124.209549 1082.615112,118.752747 1081.585327,113.738243 
	C1092.130005,113.738243 1101.732178,113.520187 1111.316040,113.843170 
	C1115.272949,113.976517 1117.045288,112.372246 1119.031250,109.184937 
	C1129.576538,92.260460 1140.467896,75.551865 1151.220825,58.756618 
	C1156.707886,50.186089 1164.160645,48.179394 1173.487793,51.813263 
	C1176.732178,53.077267 1180.125122,53.960110 1183.825684,55.121044 
z" />
	<path fill="#f4651a" opacity="1.000000" stroke="none" d="
M513.162903,263.178955 
	C515.108643,261.854156 516.753784,260.744965 518.383484,259.646179 
	C521.968445,262.342499 521.637390,264.892456 518.794556,267.638702 
	C508.873566,277.222595 497.934448,285.716125 484.788452,289.769867 
	C479.184387,291.497986 471.945709,289.753876 465.935760,287.959839 
	C453.059052,284.115967 442.322296,276.674316 434.250122,265.677216 
	C428.243591,257.494202 429.265533,248.283752 430.579529,239.221298 
	C435.505219,205.249298 446.729980,173.067032 458.931122,141.180984 
	C459.743866,139.056976 460.522217,136.919830 461.591248,134.051895 
	C455.374268,134.051895 449.937622,134.206909 444.519958,133.954239 
	C442.962860,133.881622 440.433136,132.947449 440.103271,131.870895 
	C438.244843,125.805435 436.921234,119.576096 435.498016,113.741882 
	C446.476715,113.741882 456.247742,113.550858 466.004486,113.841324 
	C469.616119,113.948845 471.340210,112.539917 472.922302,109.557701 
	C482.763672,91.006935 493.628662,73.126221 507.000092,56.818733 
	C511.763153,51.009758 516.991577,48.400299 524.291809,50.958447 
	C532.120850,53.701904 539.982178,56.358189 547.758423,59.243637 
	C549.382629,59.846310 550.696960,61.284187 552.090088,62.290894 
	C540.294189,79.725311 528.702881,96.857399 517.111572,113.989487 
	C517.410522,114.512428 517.709534,115.035378 518.008484,115.558319 
	C523.031433,115.558319 528.055664,115.627579 533.076843,115.533119 
	C536.238525,115.473633 539.393616,115.122818 542.555237,114.984940 
	C547.456360,114.771187 550.723389,117.672668 550.545288,122.628342 
	C550.502319,123.824883 548.631836,125.753571 547.356445,125.983261 
	C535.947571,128.037888 524.523071,130.133484 513.015076,131.441986 
	C508.898773,131.910034 506.591644,132.835892 504.663696,136.716843 
	C489.267395,167.709488 476.963043,199.784042 470.828430,233.938751 
	C469.253204,242.708572 468.843414,251.806915 468.991699,260.736176 
	C469.167419,271.317657 475.969238,276.512604 485.976776,273.595062 
	C495.150238,270.920746 503.916565,266.850006 513.162903,263.178955 
z" />
	<path fill="#3a71bf" opacity="1.000000" stroke="none" d="
M1034.535034,154.467072 
	C1039.854736,146.606171 1043.950073,138.700729 1043.140991,129.142319 
	C1042.597900,122.726585 1039.782104,120.158058 1033.382080,120.852707 
	C1023.328674,121.943871 1015.191956,127.339043 1007.952515,133.752884 
	C974.954407,162.988007 959.641113,199.424698 964.157471,243.672348 
	C964.359497,245.651306 964.684937,247.670685 965.326782,249.543091 
	C969.355957,261.297363 972.150696,268.315552 987.726196,262.394684 
	C1004.037659,256.194031 1019.102295,247.871399 1033.489868,238.157028 
	C1035.528320,236.780746 1037.552734,235.383652 1039.505371,234.049683 
	C1044.081543,238.664978 1044.274292,240.242630 1040.681030,244.296066 
	C1026.816528,259.936157 1010.515991,272.274933 991.696838,281.511230 
	C983.094360,285.733246 974.985229,285.240631 966.705017,281.705414 
	C943.527039,271.809784 930.655273,253.267242 924.921875,229.614655 
	C918.021545,201.147797 925.558105,175.154251 941.020752,151.186111 
	C953.868896,131.270782 971.024963,116.072296 993.024170,106.738579 
	C1006.028259,101.221283 1019.616150,99.302399 1033.592651,101.297325 
	C1050.510864,103.712135 1060.941772,114.640228 1062.724365,131.861740 
	C1064.360718,147.670914 1060.380371,162.016769 1049.650635,173.950684 
	C1039.934937,184.756821 1028.169434,183.805878 1019.430420,171.938583 
	C1024.387939,166.216583 1029.352905,160.486023 1034.535034,154.467072 
z" />
	<path fill="#3a71bf" opacity="1.000000" stroke="none" d="
M860.587402,277.532867 
	C845.337524,267.974487 841.007263,254.122894 844.235962,237.623993 
	C848.544983,215.604233 852.768372,193.533325 858.220215,171.783066 
	C862.199951,155.905869 869.237610,141.119095 880.736755,128.928757 
	C887.604797,121.648010 890.398193,121.157394 899.347290,125.112885 
	C908.176453,129.015335 915.962463,134.228500 921.918762,141.922165 
	C923.453979,143.905167 924.944580,145.840225 922.631531,148.486923 
	C907.095337,166.264450 898.374268,187.674957 890.500122,209.487015 
	C885.141235,224.331543 879.702271,239.167267 875.062500,254.241882 
	C873.090454,260.648956 872.745361,267.633209 872.252625,274.398224 
	C871.739563,281.440704 871.493713,281.864899 865.049866,279.432007 
	C863.651978,278.904236 862.284119,278.297119 860.587402,277.532867 
z" />
	<path fill="#f4651a" opacity="1.000000" stroke="none" d="
M594.478271,189.582108 
	C587.355164,208.614395 579.884583,227.136002 573.684021,246.073456 
	C570.728821,255.099213 569.848694,264.873627 568.669006,274.388336 
	C567.810669,281.310883 567.637573,281.821503 561.354614,279.457916 
	C548.021729,274.442291 538.643127,261.550751 539.998718,247.352493 
	C541.385071,232.832535 544.224915,218.426315 546.921875,204.062943 
	C550.204285,186.581955 553.612000,169.072479 561.477295,152.889328 
	C566.947083,141.635178 572.618347,130.447586 583.926086,123.695137 
	C585.351929,122.843697 587.536987,121.999901 588.888672,122.487549 
	C599.956055,126.480301 610.207275,131.818710 617.796387,141.270386 
	C620.199341,144.263077 620.750244,146.591278 617.865295,149.867081 
	C607.636475,161.481720 600.714294,175.126801 594.478271,189.582108 
z" />
	<path fill="#3a71bf" opacity="1.000000" stroke="none" d="
M913.196411,51.121643 
	C915.525879,43.059811 917.841614,35.429111 919.979919,27.748976 
	C920.845642,24.639610 922.396912,24.109007 925.488403,24.808161 
	C940.442078,28.190062 952.703918,36.046471 963.337463,46.801464 
	C965.037720,48.521191 965.182434,49.866596 963.528320,51.879650 
	C950.862732,67.292938 938.358276,82.838852 925.641602,98.209389 
	C924.809387,99.215302 922.383362,99.840759 921.133667,99.402588 
	C915.384521,97.386826 913.290710,93.601906 913.707092,87.461052 
	C913.815552,85.862534 913.914062,83.938896 913.166870,82.662102 
	C909.649597,76.651176 909.620300,70.304520 910.775208,63.775555 
	C911.498840,59.684921 912.328979,55.613132 913.196411,51.121643 
z" />
	<path fill="#f4651a" opacity="1.000000" stroke="none" d="
M646.577942,35.767921 
	C642.520142,37.921989 643.013733,41.433594 644.320007,44.749317 
	C646.383606,49.987129 648.870605,55.058125 651.283142,60.551029 
	C641.621643,73.313522 631.915771,85.773582 621.981934,98.049248 
	C621.126587,99.106209 618.460693,99.717850 617.149780,99.209915 
	C611.447754,97.000504 609.652344,93.723877 609.948120,87.625389 
	C610.019714,86.148880 610.440613,84.325493 609.769653,83.234039 
	C604.098816,74.008743 606.682251,64.426292 608.711060,55.081646 
	C610.679688,46.014099 613.661072,37.168369 616.126465,28.205633 
	C616.966919,25.150167 618.383240,23.402763 621.802856,24.889286 
	C629.980835,28.444212 638.163330,31.988613 646.577942,35.767921 
z" />
	<path fill="rgba(0,0,0,0)" opacity="1.000000" stroke="none" d="
M835.429993,40.485001 
	C856.201050,52.919407 859.023193,84.476608 842.952393,103.023941 
	C829.880127,118.110725 813.534241,127.871201 794.696838,133.598511 
	C773.232422,140.124512 751.237549,143.491516 728.755127,143.319946 
	C728.278503,143.316315 727.803589,143.091690 726.824768,142.841629 
	C727.207336,141.583160 727.411133,140.327347 727.947388,139.234680 
	C741.280945,112.065186 754.617065,84.896790 768.051514,57.777180 
	C769.818726,54.209789 771.898621,50.746269 774.233765,47.524616 
	C776.947083,43.781254 779.286987,40.276257 774.709900,35.514927 
	C795.636902,32.132469 815.833557,29.944204 835.429993,40.485001 
z" />
	<path fill="rgba(0,0,0,0)" opacity="1.000000" stroke="none" d="
M311.797424,168.477127 
	C311.300049,168.532776 310.997894,168.274033 310.695709,168.015305 
	C311.128021,168.064453 311.560333,168.113602 311.797424,168.477127 
z" />
	<path fill="#000000" opacity="1.000000" stroke="none" d="
M381.998108,121.998512 
	C382.073029,121.678413 382.258820,121.475441 382.444611,121.272476 
	C382.521912,121.532654 382.599213,121.792816 382.503418,122.201614 
	C382.330353,122.350235 382.108978,122.115639 381.998108,121.998512 
z" />
</svg>